# xmcd
#
# Track frame offsets:
#	150
#	8999
#	20187
#	39687
#	60774
#	70171
#	87421
#
# Disc length: 1236 seconds
#
# Revision: 0
# Processed by: cddbd v1.5.1PL2 Copyright (c) Steve Scherf et al.
# Submitted via: dBpowerAMP V4.0
#
DISCID=5504d207
DTITLE=JJ Hamond - Up Early ep
DYEAR=2004
DGENRE=Country
TTITLE0=Clean
TTITLE1=Kentucky Rebel
TTITLE2=We Swim/the Weakling Gives In
TTITLE3=Mom's Turn
TTITLE4=At My House/Triangular Bunny Prison
TTITLE5=Song For a Girl I Don't Know
TTITLE6=Bedroom Forever
EXTD=
EXTT0=
EXTT1=
EXTT2=
EXTT3=
EXTT4=
EXTT5=
EXTT6=
PLAYORDER=
